<?xml version="1.0" encoding="utf-8"?>
<!-- Generator: Adobe Illustrator 19.0.0, SVG Export Plug-In . SVG Version: 6.00 Build 0)  -->
<!DOCTYPE svg PUBLIC "-//W3C//DTD SVG 1.1//EN" "http://www.w3.org/Graphics/SVG/1.1/DTD/svg11.dtd">
<svg version="1.1" id="Layer_1" xmlns="http://www.w3.org/2000/svg" xmlns:xlink="http://www.w3.org/1999/xlink" x="0px" y="0px"
	 viewBox="0 0 515.9 169.4" enable-background="new 0 0 515.9 169.4" xml:space="preserve">
<g>
	<g>
		<g>
			<path fill="#FFFFFF" d="M34.2,75.9H8V146h26.2c13.8,0,24.2-9.9,24.2-23V99C58.3,85.4,48.4,75.9,34.2,75.9z M18.3,85.5H32
				c3.7,0,15.7,1.1,15.7,15.1v20.9c0,11.1-8.1,15.1-15.7,15.1H18.3V85.5z"/>
			<path fill="#FFFFFF" d="M121.9,100.2c-6.1-3.8-10.8-5.4-15.2-5.4c-10.4,0-17.2,7.2-17.2,18.3v15.3c0,11.1,6.8,18.2,17.2,18.2
				c3.2,0,8.4-0.8,15-4.7v4.8c0,10.2-9.2,11-12,11c-3.5,0-9.1-1.8-12.1-4.6l-0.5-0.4l-6.1,7.2l0.4,0.4c4.8,4.2,11.4,6.7,18.3,6.7
				c10.8,0,21.7-6.3,21.7-18.3V95.2h-8.7L121.9,100.2z M121.7,132.2c-4.7,3-10.4,4.9-14.2,4.9l-0.2,0c-5.3,0-8-3.3-8-9.9v-13
				c0-6.9,2.5-9.9,8.2-9.9c3.7,0,9.5,2.4,14.2,5.8V132.2z"/>
			<g>
				<path fill="#FFFFFF" d="M219.8,94.7c-7.6,0-13.9,2-19.2,6l-0.4,0.3l4.9,7.5l0.5-0.4c3.7-3,8.1-4.5,13.5-4.5
					c7.4,0,10.6,2.6,10.6,8.7v3.2h-13.9c-7.2,0-18.6,4.2-18.6,15.3c0,9.4,6.4,15.5,16.4,15.5c3.7,0,8.2-0.6,16.2-5l1,4.6h8.6v-33.4
					C239.4,100.6,233,94.7,219.8,94.7z M229.7,123.9v8.5c-4.6,2.6-9.9,5.2-14.4,5.2c-5.1,0-8.1-2.5-8.1-6.6c0-4.7,3.3-7,10-7H229.7z
					"/>
			</g>
			<path fill="#FFFFFF" d="M298.5,109.4l14.3,7v16.9c-3.5,2.6-7.6,3.8-12.6,3.8c-7.5,0-15.5-4-15.5-15.3v-21.5
				c0-11.3,8.4-15.3,16.3-15.3c5.2,0,10.9,1.9,14.3,4.8l0.5,0.4l5.2-8.2l-0.4-0.3c-5.2-4.2-11.8-6.3-19.7-6.3
				c-15.5,0-26.8,9.7-26.8,23.1v25.2c0,15.2,13.1,23.2,26,23.2c9.2,0,17.7-3.4,22.8-9.2l0.1-0.2v-27.9H298.5L298.5,109.4z"/>
			<path fill="#FFFFFF" d="M377.3,94.7c-12.4,0-21.1,7.7-21.1,18.8v14.4c0,11.1,8.4,18.6,21,18.6c12.5,0,21.2-7.6,21.2-18.6v-14.4
				C398.4,102.1,390.1,94.7,377.3,94.7z M377.4,137.4c-5.2,0-11.4-1.9-11.4-11.1V115c0-8.2,6.2-11.1,11.4-11.1
				c5.2,0,11.3,2.9,11.3,11.1v11.2C388.7,134.4,382.6,137.4,377.4,137.4z"/>
			<path fill="#FFFFFF" d="M432.2,94.7c-3.1,0-7.1,0.7-15.4,5.3V75.9H407V146h8.7l0.9-4.4c7.4,4.3,12,4.9,15.2,4.9
				c10.5,0,17.3-7.2,17.3-18.3V113C449.1,101.2,443.1,94.7,432.2,94.7z M416.8,110.1c6.2-3.9,11-5.8,14.3-5.8c5.6,0,8.2,3.1,8.2,9.8
				v13.1c0,6.6-2.8,9.9-8.2,9.9c-3.8,0-10.3-2.3-14.3-5V110.1z"/>
			<path fill="#FFFFFF" d="M498.7,124.4V114c0-11.5-8.3-19.2-20.6-19.2c-12.3,0-20.6,8-20.6,19.9v13.1c0,11.4,8.4,18.7,21.4,18.7
				c7.6,0,13.7-2.3,18.2-7l0.4-0.4l-6.2-6.8l-0.4,0.4c-4.3,4.1-9.3,4.7-11.8,4.7c-2.8,0-11.8-0.7-11.8-10.4v-2.7H498.7z
				 M478.1,103.8c6.8,0,10.7,4.1,10.7,11.1v1.3h-21.4v-1.6C467.4,106.6,473.1,103.8,478.1,103.8z"/>
			<g>
				<rect x="69" y="95.2" fill="#FFFFFF" width="9.7" height="50.8"/>
				<path fill="#FFFFFF" d="M73.8,75.2c-3,0-5.6,2.6-5.6,5.6c0,3,2.6,5.7,5.6,5.7c3.1,0,5.7-2.6,5.7-5.7
					C79.5,77.8,76.9,75.2,73.8,75.2z"/>
			</g>
			<g>
				<rect x="142.7" y="95.2" fill="#FFFFFF" width="9.7" height="50.8"/>
				<path fill="#FFFFFF" d="M147.5,75.2c-3,0-5.6,2.6-5.6,5.6c0,3,2.6,5.7,5.6,5.7c3.1,0,5.7-2.6,5.7-5.7
					C153.2,77.8,150.6,75.2,147.5,75.2z"/>
			</g>
			<path fill="#FFFFFF" d="M267.1,137.2l-0.6,0c-0.5,0-1,0-1.5,0c-4,0-5.5-0.8-5.5-5V75.9h-9.7v57.4c0,8,2,13.3,11.9,13.3
				c1.7,0,3.3-0.1,5.1-0.4l0.3,0V137.2z"/>
			<path fill="#FFFFFF" d="M350.9,137.2l-0.6,0c-0.5,0-1,0-1.5,0c-4,0-5.5-0.8-5.5-5V75.9h-9.7v57.4c0,8,2,13.3,11.9,13.3
				c1.7,0,3.3-0.1,5.1-0.4l0.3,0V137.2z"/>
			<g>
				<path fill="#FFFFFF" d="M500.9,96v4.2h-0.8V96h-1.4v-0.8h3.6V96H500.9z"/>
				<path fill="#FFFFFF" d="M507.1,97.2l-0.5,0.9l-0.7,1.4h-0.6l-0.7-1.3l-0.5-1h0v3h-0.8v-5h0.8l1,1.9l0.6,1.3h0l0.6-1.3l0.9-1.9
					h0.8v5h-0.8L507.1,97.2L507.1,97.2z"/>
			</g>
		</g>
		<path fill="#FFFFFF" d="M191.2,136.5c-2.4,0.3-4.7,0.6-6.6,0.6c-4.2,0-6.8-1.6-6.8-9.4v-23.6h13.4v-8.9h-13.4V83.7h-7.2l-1.9,11.5
			h-7.1v8.9h6.8v26.2c0,11.3,4.5,16.2,15,16.2c1.2,0,4.5-0.2,7.8-0.9V136.5z"/>
	</g>
	<path fill="#FFFFFF" d="M309,28.7c11.5-10.7,24.8-14.8,31.7-8.9c2.4,2,3.7,5,4.1,8.5c-4.1-0.1-8.3-0.2-12.5-0.2
		C324.5,28,316.7,28.2,309,28.7z M357.4,28.8c-0.8-4.9-2.9-9.1-6.4-12.1c-5.4-4.6-13.2-5.4-21.6-2.9c14.3-6.9,28.6-7.1,37.9,0.7
		c3.5,2.9,5.9,6.7,7.5,11.1c0.5,1.5,0.9,3.1,1.2,4.7c0.5,2.6,0.7,5.4,0.6,8.3c0,0.3,0,0.5-0.1,0.8c-0.2,4.7-1.1,9.6-2.7,14.7
		c-0.5,1.6-1.2,3.2-1.2,4.7c0,1.5,0.3,2.9,1.4,4.4c1.1,1.5,3.2,3.1,6,3.1c2.9,0,5-1.5,6-2.8c1-1.3,1.2-2.2,1.9-4.3
		c1.1-3.4,1.9-6.7,2.5-10c0.5-2.9,0.8-5.7,0.9-8.5c33.7,3.4,66.5,9.8,98.2,18.7l-2.2-2.2c-30.6-12-62.9-20.5-96.4-25.1
		c-0.6-4.4-1.8-8.6-3.7-12.2c-1.9-3.7-4.4-7-7.6-9.7c-17.9-15.1-50.3-6.6-74,18.8c-45.1,2.8-88.2,12.6-128.4,28.4l-2.2,2.2
		c39.3-11.1,80.3-18.2,122.5-20.7c1-0.1,2-0.1,3-0.2c10.6-0.6,21.2-0.9,32-0.9c3.9,0,7.8,0.1,11.7,0.1c4.5,0.1,9,0.2,13.5,0.4
		C357.9,34.9,357.9,31.7,357.4,28.8"/>
</g>
</svg>
