<?xml version="1.0" encoding="utf-8"?>
<!-- Generator: Adobe Illustrator 20.1.0, SVG Export Plug-In . SVG Version: 6.00 Build 0)  -->
<svg version="1.1" id="Layer_1" xmlns="http://www.w3.org/2000/svg" xmlns:xlink="http://www.w3.org/1999/xlink" x="0px" y="0px"
	 viewBox="0 0 349.8 31.2" style="enable-background:new 0 0 349.8 31.2;" xml:space="preserve">
<style type="text/css">
	.st0{fill:#00AEEF;}
</style>
<g>
	<path class="st0" d="M11.5,30.3c-4.1,0-7.7-1-11.1-3.9l3.2-4.1c2.4,1.9,5.2,3,7.8,3c3.6,0,4.9-1.6,4.9-3.3c0-2.5-2.7-3.1-6.6-4.2
		c-4.4-1.2-8.3-3-8.3-8c0-5,3.9-8.5,9.7-8.5c3.5,0,7,0.5,10.2,2.6l-2.5,4.5c-2.6-1.6-4.9-2.1-7.3-2.1c-2.2,0-4.5,1-4.5,3.3
		s2.4,3.1,6.4,3.9c5.9,1.3,9,4,9,8.4C22.4,27.4,17.7,30.3,11.5,30.3z"/>
	<path class="st0" d="M30.9,21.4v0.7c0,2.4,1.8,3.5,3.7,3.5c1.2,0,3-0.2,4.9-1.7l2.9,3.6c-2.5,2.4-5,2.8-7.7,2.8c-4.8,0-9-2.4-9-7.5
		v-5.3c0-5.1,3.9-8,8.7-8c5.1,0,8.7,2.9,8.7,8v4H30.9z M34.4,14.2c-1.9,0-3.5,1.3-3.5,3.5V18h7v-0.4C37.9,15.3,36.3,14.2,34.4,14.2z
		"/>
	<path class="st0" d="M51.8,21.4v0.7c0,2.4,1.8,3.5,3.7,3.5c1.2,0,3-0.2,4.9-1.7l2.9,3.6c-2.5,2.4-5,2.8-7.7,2.8c-4.8,0-9-2.4-9-7.5
		v-5.3c0-5.1,3.9-8,8.7-8c5.1,0,8.7,2.9,8.7,8v4H51.8z M55.3,14.2c-1.9,0-3.5,1.3-3.5,3.5V18h7v-0.4C58.8,15.3,57.2,14.2,55.3,14.2z
		"/>
	<path class="st0" d="M90.5,28.4c-2.5,1.4-4.4,1.9-6.1,1.9c-4.2,0-6.6-2.4-6.6-6.2c0-4.5,4.2-6.2,7.4-6.2h5.3v-0.9
		c0-1.9-1-2.9-3.8-2.9c-1.3,0-3.4,0.2-5.4,1.8L79,12c2.9-2.2,5.9-2.6,8.3-2.6c5.8,0,8.5,2.6,8.5,8v12.7H91l-0.4-1.6L90.5,28.4z
		 M90.6,21.7h-4.4c-1.3,0-2.7,0.3-2.7,2c0,1.1,0.8,1.9,2.4,1.9c1.8,0,3.6-0.9,4.7-1.5V21.7z"/>
	<path class="st0" d="M128.2,22.8c0,4.9-2.7,7.4-7,7.4c-1.4,0-3.4-0.6-5.7-1.8l-0.4,1.6h-4.8V0.5h5.2v10.8c2.6-1.5,4.6-1.9,6-1.9
		c4.7,0,6.6,2.9,6.6,7.4V22.8z M122.9,17.5c0-2.3-1.1-3.1-2.6-3.1c-1.3,0-3.1,0.9-4.8,1.9v7.5c1.2,0.8,3.5,1.6,4.8,1.6
		c1.4,0,2.6-0.9,2.6-3.1V17.5z"/>
	<path class="st0" d="M137,21.4v0.7c0,2.4,1.8,3.5,3.7,3.5c1.2,0,3-0.2,4.9-1.7l2.9,3.6c-2.5,2.4-5,2.8-7.7,2.8c-4.8,0-9-2.4-9-7.5
		v-5.3c0-5.1,3.9-8,8.7-8c5.1,0,8.7,2.9,8.7,8v4H137z M140.6,14.2c-1.9,0-3.5,1.3-3.5,3.5V18h7v-0.4C144,15.3,142.4,14.2,140.6,14.2
		z"/>
	<path class="st0" d="M151.9,13.9V9.7h2.6l0.9-5.1h4.2v5.1h4.9v4.2h-4.9v8.5c0,1.9,0.4,3.1,2.7,3.1c0.7,0,1.8-0.1,3-0.5l0.9,4.5
		c-1.7,0.7-3.8,0.8-5.2,0.8c-5.3,0-6.6-3.1-6.6-7.3v-9.1H151.9z"/>
	<path class="st0" d="M167.4,13.9V9.7h2.6l0.9-5.1h4.2v5.1h4.9v4.2h-4.9v8.5c0,1.9,0.4,3.1,2.7,3.1c0.7,0,1.8-0.1,3-0.5l0.9,4.5
		c-1.7,0.7-3.8,0.8-5.2,0.8c-5.3,0-6.6-3.1-6.6-7.3v-9.1H167.4z"/>
	<path class="st0" d="M189.1,21.4v0.7c0,2.4,1.8,3.5,3.7,3.5c1.2,0,3-0.2,4.9-1.7l2.9,3.6c-2.5,2.4-5,2.8-7.7,2.8
		c-4.8,0-9-2.4-9-7.5v-5.3c0-5.1,3.9-8,8.7-8c5.1,0,8.7,2.9,8.7,8v4H189.1z M192.6,14.2c-1.9,0-3.5,1.3-3.5,3.5V18h7v-0.4
		C196.1,15.3,194.5,14.2,192.6,14.2z"/>
	<path class="st0" d="M218.3,14.8c-3.6,0.3-5.8,1.2-7.7,2.3v13h-5.2V9.6h4.8l0.4,3h0c1.5-1.4,4.8-3.3,7.7-3.3V14.8z"/>
	<path class="st0" d="M238.3,22.6c0.2-0.8,1.7-5.3,2-6.2c0.2-0.8,1.3-4.1,1.5-4.8h4.5l1.7,5.3l1.8,5.9h0.2c0.2-1,1.3-5.7,1.5-6.7
		l1.6-6.5h5.5L253,30.1h-5.3l-1.8-5.4l-1.7-5.5l-0.2,0c-0.3,0.8-1.5,4.9-1.8,5.7l-1.7,5.3h-5.2l-5.7-20.5h5.5l1.6,6.8l1.4,6.2H238.3
		z"/>
	<path class="st0" d="M269.7,30.3c-4.6,0-9-2.4-9-7.5v-5.9c0-5,4.5-7.5,9-7.5c4.9,0,8.9,2.6,8.9,7.6v5.8
		C278.7,27.8,274.3,30.3,269.7,30.3z M273.4,17.8c0-2.6-1.9-3.5-3.7-3.5c-1.8,0-3.8,0.9-3.8,3.5v4c0,2.6,1.8,3.6,3.8,3.6
		c1.7,0,3.7-0.9,3.7-3.6V17.8z"/>
	<path class="st0" d="M295.7,14.8c-3.6,0.3-5.8,1.2-7.7,2.3v13h-5.2V9.6h4.8l0.4,3h0c1.5-1.4,4.8-3.3,7.7-3.3V14.8z"/>
	<path class="st0" d="M304.1,23.5c0,1.8,0.5,2.1,2.8,2.1l0.1,4.4c-0.9,0.2-1.8,0.2-2.5,0.2c-4.9,0-5.6-2.3-5.6-5.8v-24h5.2V23.5z"/>
	<path class="st0" d="M309.6,16.8c0-4.5,2.6-7.4,7.1-7.4c1.4,0,3.5,0.2,5.5,1.2v-10h5.3v29.5h-4.9l-0.4-1.9
		c-2.3,1.4-4.3,2.1-5.7,2.1c-4.4,0-6.9-2.4-6.9-7.5V16.8z M314.9,22.4c0,2.4,1.2,3.1,2.6,3.1c1.3,0,3.3-0.8,4.7-1.8v-8.2
		c-1.7-0.7-3.1-1.1-4.4-1.1c-1.7,0-3,0.9-3,3.2V22.4z"/>
	<path class="st0" d="M332.3,27c0-1.7,1.4-3.2,3.2-3.2c1.9,0,3.3,1.4,3.3,3.2c0,1.8-1.2,3.4-3.2,3.4C333.7,30.4,332.3,28.8,332.3,27
		z"/>
	<path class="st0" d="M336.5,9.2h-1.8V2.3h-2.5V0.5h6.7v1.7h-2.5V9.2z M346.9,4.5L346,6.1L345,8h-1.3l-1-1.8l-0.9-1.6h0v4.6h-1.8
		V0.5h1.7l1.6,3l1.1,2.2h0.1l1.1-2.2l1.6-3h1.7v8.6h-1.8L346.9,4.5L346.9,4.5z"/>
</g>
</svg>
