<svg xmlns="http://www.w3.org/2000/svg" viewBox="0 0 515.9 169.4"><path fill="#FFF" d="M34.2 75.9H8V146h26.2c13.8 0 24.2-9.9 24.2-23V99c-.1-13.6-10-23.1-24.2-23.1zm-15.9 9.6H32c3.7 0 15.7 1.1 15.7 15.1v20.9c0 11.1-8.1 15.1-15.7 15.1H18.3V85.5zM121.9 100.2c-6.1-3.8-10.8-5.4-15.2-5.4-10.4 0-17.2 7.2-17.2 18.3v15.3c0 11.1 6.8 18.2 17.2 18.2 3.2 0 8.4-.8 15-4.7v4.8c0 10.2-9.2 11-12 11-3.5 0-9.1-1.8-12.1-4.6l-.5-.4-6.1 7.2.4.4c4.8 4.2 11.4 6.7 18.3 6.7 10.8 0 21.7-6.3 21.7-18.3V95.2h-8.7l-.8 5zm-.2 32c-4.7 3-10.4 4.9-14.2 4.9h-.2c-5.3 0-8-3.3-8-9.9v-13c0-6.9 2.5-9.9 8.2-9.9 3.7 0 9.5 2.4 14.2 5.8v22.1zM219.8 94.7c-7.6 0-13.9 2-19.2 6l-.4.3 4.9 7.5.5-.4c3.7-3 8.1-4.5 13.5-4.5 7.4 0 10.6 2.6 10.6 8.7v3.2h-13.9c-7.2 0-18.6 4.2-18.6 15.3 0 9.4 6.4 15.5 16.4 15.5 3.7 0 8.2-.6 16.2-5l1 4.6h8.6v-33.4c0-11.9-6.4-17.8-19.6-17.8zm9.9 29.2v8.5c-4.6 2.6-9.9 5.2-14.4 5.2-5.1 0-8.1-2.5-8.1-6.6 0-4.7 3.3-7 10-7h12.5zM298.5 109.4l14.3 7v16.9c-3.5 2.6-7.6 3.8-12.6 3.8-7.5 0-15.5-4-15.5-15.3v-21.5C284.7 89 293.1 85 301 85c5.2 0 10.9 1.9 14.3 4.8l.5.4L321 82l-.4-.3c-5.2-4.2-11.8-6.3-19.7-6.3-15.5 0-26.8 9.7-26.8 23.1v25.2c0 15.2 13.1 23.2 26 23.2 9.2 0 17.7-3.4 22.8-9.2l.1-.2v-27.9h-24.5v-.2zM377.3 94.7c-12.4 0-21.1 7.7-21.1 18.8v14.4c0 11.1 8.4 18.6 21 18.6 12.5 0 21.2-7.6 21.2-18.6v-14.4c0-11.4-8.3-18.8-21.1-18.8zm.1 42.7c-5.2 0-11.4-1.9-11.4-11.1V115c0-8.2 6.2-11.1 11.4-11.1s11.3 2.9 11.3 11.1v11.2c0 8.2-6.1 11.2-11.3 11.2zM432.2 94.7c-3.1 0-7.1.7-15.4 5.3V75.9H407V146h8.7l.9-4.4c7.4 4.3 12 4.9 15.2 4.9 10.5 0 17.3-7.2 17.3-18.3V113c0-11.8-6-18.3-16.9-18.3zm-15.4 15.4c6.2-3.9 11-5.8 14.3-5.8 5.6 0 8.2 3.1 8.2 9.8v13.1c0 6.6-2.8 9.9-8.2 9.9-3.8 0-10.3-2.3-14.3-5v-22zM498.7 124.4V114c0-11.5-8.3-19.2-20.6-19.2s-20.6 8-20.6 19.9v13.1c0 11.4 8.4 18.7 21.4 18.7 7.6 0 13.7-2.3 18.2-7l.4-.4-6.2-6.8-.4.4c-4.3 4.1-9.3 4.7-11.8 4.7-2.8 0-11.8-.7-11.8-10.4v-2.7h31.4zm-20.6-20.6c6.8 0 10.7 4.1 10.7 11.1v1.3h-21.4v-1.6c0-8 5.7-10.8 10.7-10.8z"/><g fill="#FFF"><path d="M69 95.2h9.7V146H69zM73.8 75.2c-3 0-5.6 2.6-5.6 5.6 0 3 2.6 5.7 5.6 5.7 3.1 0 5.7-2.6 5.7-5.7 0-3-2.6-5.6-5.7-5.6z"/></g><g fill="#FFF"><path d="M142.7 95.2h9.7V146h-9.7zM147.5 75.2c-3 0-5.6 2.6-5.6 5.6 0 3 2.6 5.7 5.6 5.7 3.1 0 5.7-2.6 5.7-5.7 0-3-2.6-5.6-5.7-5.6z"/></g><path fill="#FFF" d="M267.1 137.2H265c-4 0-5.5-.8-5.5-5V75.9h-9.7v57.4c0 8 2 13.3 11.9 13.3 1.7 0 3.3-.1 5.1-.4h.3v-9zM350.9 137.2h-2.1c-4 0-5.5-.8-5.5-5V75.9h-9.7v57.4c0 8 2 13.3 11.9 13.3 1.7 0 3.3-.1 5.1-.4h.3v-9z"/><g fill="#FFF"><path d="M500.9 96v4.2h-.8V96h-1.4v-.8h3.6v.8h-1.4zM507.1 97.2l-.5.9-.7 1.4h-.6l-.7-1.3-.5-1v3h-.8v-5h.8l1 1.9.6 1.3.6-1.3.9-1.9h.8v5h-.8l-.1-3z"/></g><path fill="#FFF" d="M191.2 136.5c-2.4.3-4.7.6-6.6.6-4.2 0-6.8-1.6-6.8-9.4v-23.6h13.4v-8.9h-13.4V83.7h-7.2l-1.9 11.5h-7.1v8.9h6.8v26.2c0 11.3 4.5 16.2 15 16.2 1.2 0 4.5-.2 7.8-.9v-9.1zM309 28.7c11.5-10.7 24.8-14.8 31.7-8.9 2.4 2 3.7 5 4.1 8.5-4.1-.1-8.3-.2-12.5-.2-7.8-.1-15.6.1-23.3.6zm48.4.1c-.8-4.9-2.9-9.1-6.4-12.1-5.4-4.6-13.2-5.4-21.6-2.9 14.3-6.9 28.6-7.1 37.9.7 3.5 2.9 5.9 6.7 7.5 11.1.5 1.5.9 3.1 1.2 4.7.5 2.6.7 5.4.6 8.3 0 .3 0 .5-.1.8-.2 4.7-1.1 9.6-2.7 14.7-.5 1.6-1.2 3.2-1.2 4.7s.3 2.9 1.4 4.4c1.1 1.5 3.2 3.1 6 3.1 2.9 0 5-1.5 6-2.8 1-1.3 1.2-2.2 1.9-4.3 1.1-3.4 1.9-6.7 2.5-10 .5-2.9.8-5.7.9-8.5 33.7 3.4 66.5 9.8 98.2 18.7l-2.2-2.2c-30.6-12-62.9-20.5-96.4-25.1-.6-4.4-1.8-8.6-3.7-12.2-1.9-3.7-4.4-7-7.6-9.7-17.9-15.1-50.3-6.6-74 18.8-45.1 2.8-88.2 12.6-128.4 28.4l-2.2 2.2c39.3-11.1 80.3-18.2 122.5-20.7 1-.1 2-.1 3-.2 10.6-.6 21.2-.9 32-.9 3.9 0 7.8.1 11.7.1 4.5.1 9 .2 13.5.4.2-3.4.2-6.6-.3-9.5"/></svg>