<svg id="Layer_1" xmlns="http://www.w3.org/2000/svg" viewBox="0 0 349.8 31.2"><style>.st0{fill:#00aeef}</style><path class="st0" d="M11.5 30.3c-4.1 0-7.7-1-11.1-3.9l3.2-4.1c2.4 1.9 5.2 3 7.8 3 3.6 0 4.9-1.6 4.9-3.3 0-2.5-2.7-3.1-6.6-4.2-4.4-1.2-8.3-3-8.3-8s3.9-8.5 9.7-8.5c3.5 0 7 .5 10.2 2.6l-2.5 4.5c-2.6-1.6-4.9-2.1-7.3-2.1-2.2 0-4.5 1-4.5 3.3s2.4 3.1 6.4 3.9c5.9 1.3 9 4 9 8.4 0 5.5-4.7 8.4-10.9 8.4zM30.9 21.4v.7c0 2.4 1.8 3.5 3.7 3.5 1.2 0 3-.2 4.9-1.7l2.9 3.6c-2.5 2.4-5 2.8-7.7 2.8-4.8 0-9-2.4-9-7.5v-5.3c0-5.1 3.9-8 8.7-8 5.1 0 8.7 2.9 8.7 8v4H30.9zm3.5-7.2c-1.9 0-3.5 1.3-3.5 3.5v.3h7v-.4c0-2.3-1.6-3.4-3.5-3.4zM51.8 21.4v.7c0 2.4 1.8 3.5 3.7 3.5 1.2 0 3-.2 4.9-1.7l2.9 3.6c-2.5 2.4-5 2.8-7.7 2.8-4.8 0-9-2.4-9-7.5v-5.3c0-5.1 3.9-8 8.7-8 5.1 0 8.7 2.9 8.7 8v4H51.8zm3.5-7.2c-1.9 0-3.5 1.3-3.5 3.5v.3h7v-.4c0-2.3-1.6-3.4-3.5-3.4zM90.5 28.4c-2.5 1.4-4.4 1.9-6.1 1.9-4.2 0-6.6-2.4-6.6-6.2 0-4.5 4.2-6.2 7.4-6.2h5.3V17c0-1.9-1-2.9-3.8-2.9-1.3 0-3.4.2-5.4 1.8L79 12c2.9-2.2 5.9-2.6 8.3-2.6 5.8 0 8.5 2.6 8.5 8v12.7H91l-.4-1.6-.1-.1zm.1-6.7h-4.4c-1.3 0-2.7.3-2.7 2 0 1.1.8 1.9 2.4 1.9 1.8 0 3.6-.9 4.7-1.5v-2.4zM128.2 22.8c0 4.9-2.7 7.4-7 7.4-1.4 0-3.4-.6-5.7-1.8l-.4 1.6h-4.8V.5h5.2v10.8c2.6-1.5 4.6-1.9 6-1.9 4.7 0 6.6 2.9 6.6 7.4v6zm-5.3-5.3c0-2.3-1.1-3.1-2.6-3.1-1.3 0-3.1.9-4.8 1.9v7.5c1.2.8 3.5 1.6 4.8 1.6 1.4 0 2.6-.9 2.6-3.1v-4.8zM137 21.4v.7c0 2.4 1.8 3.5 3.7 3.5 1.2 0 3-.2 4.9-1.7l2.9 3.6c-2.5 2.4-5 2.8-7.7 2.8-4.8 0-9-2.4-9-7.5v-5.3c0-5.1 3.9-8 8.7-8 5.1 0 8.7 2.9 8.7 8v4H137zm3.6-7.2c-1.9 0-3.5 1.3-3.5 3.5v.3h7v-.4c-.1-2.3-1.7-3.4-3.5-3.4zM151.9 13.9V9.7h2.6l.9-5.1h4.2v5.1h4.9v4.2h-4.9v8.5c0 1.9.4 3.1 2.7 3.1.7 0 1.8-.1 3-.5l.9 4.5c-1.7.7-3.8.8-5.2.8-5.3 0-6.6-3.1-6.6-7.3v-9.1h-2.5zM167.4 13.9V9.7h2.6l.9-5.1h4.2v5.1h4.9v4.2h-4.9v8.5c0 1.9.4 3.1 2.7 3.1.7 0 1.8-.1 3-.5l.9 4.5c-1.7.7-3.8.8-5.2.8-5.3 0-6.6-3.1-6.6-7.3v-9.1h-2.5zM189.1 21.4v.7c0 2.4 1.8 3.5 3.7 3.5 1.2 0 3-.2 4.9-1.7l2.9 3.6c-2.5 2.4-5 2.8-7.7 2.8-4.8 0-9-2.4-9-7.5v-5.3c0-5.1 3.9-8 8.7-8 5.1 0 8.7 2.9 8.7 8v4h-12.2zm3.5-7.2c-1.9 0-3.5 1.3-3.5 3.5v.3h7v-.4c0-2.3-1.6-3.4-3.5-3.4zM218.3 14.8c-3.6.3-5.8 1.2-7.7 2.3v13h-5.2V9.6h4.8l.4 3c1.5-1.4 4.8-3.3 7.7-3.3v5.5zM238.3 22.6c.2-.8 1.7-5.3 2-6.2.2-.8 1.3-4.1 1.5-4.8h4.5l1.7 5.3 1.8 5.9h.2c.2-1 1.3-5.7 1.5-6.7l1.6-6.5h5.5L253 30.1h-5.3l-1.8-5.4-1.7-5.5h-.2c-.3.8-1.5 4.9-1.8 5.7l-1.7 5.3h-5.2l-5.7-20.5h5.5l1.6 6.8 1.4 6.2h.2zM269.7 30.3c-4.6 0-9-2.4-9-7.5v-5.9c0-5 4.5-7.5 9-7.5 4.9 0 8.9 2.6 8.9 7.6v5.8c.1 5-4.3 7.5-8.9 7.5zm3.7-12.5c0-2.6-1.9-3.5-3.7-3.5-1.8 0-3.8.9-3.8 3.5v4c0 2.6 1.8 3.6 3.8 3.6 1.7 0 3.7-.9 3.7-3.6v-4zM295.7 14.8c-3.6.3-5.8 1.2-7.7 2.3v13h-5.2V9.6h4.8l.4 3c1.5-1.4 4.8-3.3 7.7-3.3v5.5zM304.1 23.5c0 1.8.5 2.1 2.8 2.1l.1 4.4c-.9.2-1.8.2-2.5.2-4.9 0-5.6-2.3-5.6-5.8V.4h5.2v23.1zM309.6 16.8c0-4.5 2.6-7.4 7.1-7.4 1.4 0 3.5.2 5.5 1.2V.6h5.3v29.5h-4.9l-.4-1.9c-2.3 1.4-4.3 2.1-5.7 2.1-4.4 0-6.9-2.4-6.9-7.5v-6zm5.3 5.6c0 2.4 1.2 3.1 2.6 3.1 1.3 0 3.3-.8 4.7-1.8v-8.2c-1.7-.7-3.1-1.1-4.4-1.1-1.7 0-3 .9-3 3.2v4.8zM332.3 27c0-1.7 1.4-3.2 3.2-3.2 1.9 0 3.3 1.4 3.3 3.2 0 1.8-1.2 3.4-3.2 3.4-1.9 0-3.3-1.6-3.3-3.4zM336.5 9.2h-1.8V2.3h-2.5V.5h6.7v1.7h-2.5v7zm10.4-4.7l-.9 1.6-1 1.9h-1.3l-1-1.8-.9-1.6v4.6H340V.5h1.7l1.6 3 1.1 2.2h.1l1.1-2.2 1.6-3h1.7v8.6h-1.8l-.2-4.6z"/></svg>